<svg xmlns="http://www.w3.org/2000/svg" xmlns:xlink="http://www.w3.org/1999/xlink" contentStyleType="text/css" height="478.4px" preserveAspectRatio="none" style="width:1443px;height:478px;background:#FFFFFF;" version="1.1" viewBox="0 0 1443 478" width="1443.2px" zoomAndPan="magnify"><defs/><g><!--cluster pgl--><g id="cluster_pgl"><path d="M6.8,4.8109 L24.3945,4.8109 A3,3 0 0 1 26.3945,6.8109 L31.9945,24.5078 L1435.6,24.5078 A2,2 0 0 1 1437.6,26.5078 L1437.6,471.1949 A2,2 0 0 1 1435.6,473.1949 L6.8,473.1949 A2,2 0 0 1 4.8,471.1949 L4.8,6.8109 A2,2 0 0 1 6.8,4.8109 " fill="none" style="stroke:#000000;stroke-width:1.2000000000000002;"/><line style="stroke:#000000;stroke-width:1.2000000000000002;" x1="4.8" x2="31.9945" y1="24.5078" y2="24.5078"/><text fill="#000000" font-family="sans-serif" font-size="11.2" font-weight="bold" lengthAdjust="spacing" textLength="16.7945" x="8" y="18.4969">pgl</text></g><!--cluster app--><g id="cluster_app"><path d="M26,231.5949 L46.7117,231.5949 A3,3 0 0 1 48.7117,233.5949 L54.3117,251.2918 L1416.4,251.2918 A2,2 0 0 1 1418.4,253.2918 L1418.4,451.9949 A2,2 0 0 1 1416.4,453.9949 L26,453.9949 A2,2 0 0 1 24,451.9949 L24,233.5949 A2,2 0 0 1 26,231.5949 " fill="none" style="stroke:#000000;stroke-width:1.2000000000000002;"/><line style="stroke:#000000;stroke-width:1.2000000000000002;" x1="24" x2="54.3117" y1="251.2918" y2="251.2918"/><text fill="#000000" font-family="sans-serif" font-size="11.2" font-weight="bold" lengthAdjust="spacing" textLength="19.9117" x="27.2" y="245.2809">app</text></g><!--cluster fastCall2--><g id="cluster_fastCall2"><path d="M45.2,267.5949 L92.6867,267.5949 A3,3 0 0 1 94.6867,269.5949 L100.2867,287.2918 L1397.2,287.2918 A2,2 0 0 1 1399.2,289.2918 L1399.2,432.7949 A2,2 0 0 1 1397.2,434.7949 L45.2,434.7949 A2,2 0 0 1 43.2,432.7949 L43.2,269.5949 A2,2 0 0 1 45.2,267.5949 " fill="none" style="stroke:#000000;stroke-width:1.2000000000000002;"/><line style="stroke:#000000;stroke-width:1.2000000000000002;" x1="43.2" x2="100.2867" y1="287.2918" y2="287.2918"/><text fill="#000000" font-family="sans-serif" font-size="11.2" font-weight="bold" lengthAdjust="spacing" textLength="46.6867" x="46.4" y="281.2809">fastCall2</text></g><!--class AppNames--><g id="elem_AppNames"><rect codeLine="11" fill="#F1F1F1" height="97.9875" id="AppNames" rx="2" ry="2" style="stroke:#181818;stroke-width:0.4000000000000001;" width="83.0617" x="260.072" y="34.4109"/><ellipse cx="272.998" cy="47.2109" fill="#EB937F" rx="8.8" ry="8.8" style="stroke:#181818;stroke-width:0.8000000000000002;"/><path d="M272.0855,47.8484 L272.0855,49.8484 L275.548,49.8484 L275.548,49.1109 Q275.548,48.6234 275.7355,48.4109 Q275.9355,48.1984 276.2355,48.1984 Q276.5355,48.1984 276.723,48.4109 Q276.9105,48.6234 276.9105,49.1109 L276.9105,51.2109 L270.5105,51.2109 Q270.0105,51.2109 269.798,51.0234 Q269.598,50.8359 269.598,50.5234 Q269.598,50.2234 269.8105,50.0359 Q270.023,49.8484 270.5105,49.8484 L270.723,49.8484 L270.723,44.5234 L270.5105,44.5234 Q270.0105,44.5234 269.798,44.3359 Q269.598,44.1484 269.598,43.8359 Q269.598,43.5359 269.798,43.3484 Q270.0105,43.1609 270.5105,43.1609 L276.6105,43.1609 L276.6105,45.2359 Q276.6105,45.7234 276.423,45.9359 Q276.248,46.1359 275.9355,46.1359 Q275.6355,46.1359 275.448,45.9359 Q275.2605,45.7234 275.2605,45.2359 L275.2605,44.5234 L272.0855,44.5234 L272.0855,46.4859 L273.273,46.4859 Q273.273,45.9609 273.373,45.8109 Q273.5855,45.4859 273.9605,45.4859 Q274.2605,45.4859 274.448,45.6984 Q274.6355,45.8984 274.6355,46.3859 L274.6355,47.9609 Q274.6355,48.3984 274.5355,48.5484 Q274.323,48.8609 273.9605,48.8609 Q273.5855,48.8609 273.373,48.5359 Q273.273,48.3859 273.273,47.8484 L272.0855,47.8484 Z " fill="#000000"/><text fill="#000000" font-family="sans-serif" font-size="11.2" lengthAdjust="spacing" textLength="55.4039" x="284.4038" y="51.8484">AppNames</text><line style="stroke:#181818;stroke-width:0.4000000000000001;" x1="260.872" x2="342.3337" y1="60.0109" y2="60.0109"/><ellipse cx="268.872" cy="71.8594" fill="none" rx="2.4" ry="2.4" style="stroke:#038048;stroke-width:0.8000000000000002;"/><text fill="#000000" font-family="sans-serif" font-size="11.2" lengthAdjust="spacing" textLength="41.0758" x="276.072" y="75.2969">FastCall</text><ellipse cx="268.872" cy="86.7563" fill="none" rx="2.4" ry="2.4" style="stroke:#038048;stroke-width:0.8000000000000002;"/><text fill="#000000" font-family="sans-serif" font-size="11.2" lengthAdjust="spacing" textLength="47.3047" x="276.072" y="90.1938">FastCall2</text><ellipse cx="268.872" cy="101.6531" fill="none" rx="2.4" ry="2.4" style="stroke:#038048;stroke-width:0.8000000000000002;"/><text fill="#000000" font-family="sans-serif" font-size="11.2" lengthAdjust="spacing" textLength="62.2617" x="276.072" y="105.0906">HapScanner</text><ellipse cx="268.872" cy="116.55" fill="none" rx="2.4" ry="2.4" style="stroke:#038048;stroke-width:0.8000000000000002;"/><text fill="#000000" font-family="sans-serif" font-size="11.2" lengthAdjust="spacing" textLength="40.4742" x="276.072" y="119.9875">PopDep</text><line style="stroke:#181818;stroke-width:0.4000000000000001;" x1="260.872" x2="342.3337" y1="125.9984" y2="125.9984"/></g><!--class AppAbstract--><g id="elem_AppAbstract"><rect codeLine="26" fill="#F1F1F1" height="38.4" id="AppAbstract" rx="2" ry="2" style="stroke:#181818;stroke-width:0.4000000000000001;" width="86.6094" x="603.096" y="180.3949"/><ellipse cx="615.096" cy="193.1949" fill="#A9DCDF" rx="8.8" ry="8.8" style="stroke:#181818;stroke-width:0.8000000000000002;"/><path d="M616.846,194.6074 L613.5335,194.6074 L613.196,195.4324 L613.5335,195.4324 Q614.021,195.4324 614.2335,195.6199 Q614.446,195.8074 614.446,196.1199 Q614.446,196.4199 614.2335,196.6074 Q614.021,196.7949 613.5335,196.7949 L611.696,196.7949 Q611.2085,196.7949 611.0085,196.6074 Q610.796,196.4199 610.796,196.1074 Q610.796,195.8074 611.021,195.6199 Q611.2335,195.4199 611.7335,195.4324 L613.871,190.1074 L612.9835,190.1074 Q612.496,190.1074 612.2835,189.9199 Q612.071,189.7324 612.071,189.4199 Q612.071,189.1199 612.2835,188.9324 Q612.496,188.7449 612.9835,188.7449 L615.921,188.7449 L618.6335,195.4324 Q619.1085,195.4324 619.2585,195.5449 Q619.571,195.7574 619.571,196.1199 Q619.571,196.4199 619.3585,196.6074 Q619.1585,196.7949 618.671,196.7949 L616.8335,196.7949 Q616.346,196.7949 616.1335,196.6074 Q615.921,196.4199 615.921,196.1074 Q615.921,195.8074 616.1335,195.6199 Q616.346,195.4324 616.8335,195.4324 L617.171,195.4324 L616.846,194.6074 Z M616.271,193.2449 L615.1835,190.5449 L614.0835,193.2449 L616.271,193.2449 Z " fill="#000000"/><text fill="#000000" font-family="sans-serif" font-size="11.2" font-style="italic" lengthAdjust="spacing" textLength="61.0094" x="626.296" y="197.8324">AppAbstract</text><line style="stroke:#181818;stroke-width:0.4000000000000001;" x1="603.896" x2="688.9054" y1="205.9949" y2="205.9949"/><line style="stroke:#181818;stroke-width:0.4000000000000001;" x1="603.896" x2="688.9054" y1="212.3949" y2="212.3949"/></g><!--class AppInterface--><g id="elem_AppInterface"><rect codeLine="38" fill="#F1F1F1" height="38.4" id="AppInterface" rx="2" ry="2" style="stroke:#181818;stroke-width:0.4000000000000001;" width="89.1086" x="601.848" y="64.2029"/><ellipse cx="613.848" cy="77.0029" fill="#B4A7E5" rx="8.8" ry="8.8" style="stroke:#181818;stroke-width:0.8000000000000002;"/><path d="M614.6105,74.3154 L614.6105,79.6404 L615.9855,79.6404 Q616.473,79.6404 616.6855,79.8279 Q616.898,80.0154 616.898,80.3279 Q616.898,80.6279 616.6855,80.8154 Q616.473,81.0029 615.9855,81.0029 L611.873,81.0029 Q611.3855,81.0029 611.173,80.8154 Q610.9605,80.6279 610.9605,80.3154 Q610.9605,80.0154 611.173,79.8279 Q611.3855,79.6404 611.873,79.6404 L613.248,79.6404 L613.248,74.3154 L611.873,74.3154 Q611.3855,74.3154 611.173,74.1279 Q610.9605,73.9404 610.9605,73.6279 Q610.9605,73.3279 611.173,73.1404 Q611.3855,72.9529 611.873,72.9529 L615.9855,72.9529 Q616.473,72.9529 616.6855,73.1404 Q616.898,73.3279 616.898,73.6279 Q616.898,73.9404 616.6855,74.1279 Q616.473,74.3154 615.9855,74.3154 L614.6105,74.3154 Z " fill="#000000"/><text fill="#000000" font-family="sans-serif" font-size="11.2" font-style="italic" lengthAdjust="spacing" textLength="63.5086" x="625.048" y="81.6404">AppInterface</text><line style="stroke:#181818;stroke-width:0.4000000000000001;" x1="602.648" x2="690.1566" y1="89.8029" y2="89.8029"/><line style="stroke:#181818;stroke-width:0.4000000000000001;" x1="602.648" x2="690.1566" y1="96.2029" y2="96.2029"/></g><!--class VariationLibrary--><g id="elem_VariationLibrary"><rect codeLine="1" fill="#F1F1F1" height="38.4" id="VariationLibrary" rx="2" ry="2" style="stroke:#181818;stroke-width:0.4000000000000001;" width="104.0383" x="1151.984" y="383.5949"/><ellipse cx="1163.984" cy="396.3949" fill="#ADD1B2" rx="8.8" ry="8.8" style="stroke:#181818;stroke-width:0.8000000000000002;"/><path d="M1166.1965,393.0949 Q1166.3215,392.9199 1166.4715,392.8324 Q1166.6215,392.7449 1166.7965,392.7449 Q1167.0965,392.7449 1167.284,392.9574 Q1167.4715,393.1574 1167.4715,393.6449 L1167.4715,394.8074 Q1167.4715,395.2949 1167.284,395.5074 Q1167.0965,395.7199 1166.7965,395.7199 Q1166.5215,395.7199 1166.359,395.5574 Q1166.1965,395.4074 1166.109,394.9949 Q1166.0715,394.7074 1165.9215,394.5574 Q1165.659,394.2574 1165.1715,394.0824 Q1164.684,393.9074 1164.184,393.9074 Q1163.5715,393.9074 1163.059,394.1699 Q1162.559,394.4324 1162.159,395.0324 Q1161.7715,395.6324 1161.7715,396.4574 L1161.7715,397.3324 Q1161.7715,398.3199 1162.484,398.9824 Q1163.1965,399.6324 1164.4715,399.6324 Q1165.2215,399.6324 1165.7465,399.4324 Q1166.059,399.3074 1166.3965,398.9574 Q1166.609,398.7449 1166.7215,398.6824 Q1166.8465,398.6199 1167.009,398.6199 Q1167.2715,398.6199 1167.4715,398.8324 Q1167.684,399.0324 1167.684,399.3074 Q1167.684,399.5824 1167.409,399.9074 Q1167.009,400.3699 1166.3715,400.6324 Q1165.509,400.9949 1164.4715,400.9949 Q1163.259,400.9949 1162.2965,400.4949 Q1161.509,400.0949 1160.959,399.2449 Q1160.409,398.3824 1160.409,397.3574 L1160.409,396.4324 Q1160.409,395.3699 1160.8965,394.4574 Q1161.3965,393.5324 1162.2715,393.0449 Q1163.1465,392.5449 1164.134,392.5449 Q1164.7215,392.5449 1165.234,392.6824 Q1165.759,392.8074 1166.1965,393.0949 Z " fill="#000000"/><text fill="#000000" font-family="sans-serif" font-size="11.2" lengthAdjust="spacing" textLength="78.4383" x="1175.184" y="401.0324">VariationLibrary</text><line style="stroke:#181818;stroke-width:0.4000000000000001;" x1="1152.784" x2="1255.2223" y1="409.1949" y2="409.1949"/><line style="stroke:#181818;stroke-width:0.4000000000000001;" x1="1152.784" x2="1255.2223" y1="415.5949" y2="415.5949"/></g><!--class BuildVariationLibrary--><g id="elem_BuildVariationLibrary"><rect codeLine="3" fill="#F1F1F1" height="38.4" id="BuildVariationLibrary" rx="2" ry="2" style="stroke:#181818;stroke-width:0.4000000000000001;" width="128.943" x="730.728" y="297.1949"/><ellipse cx="742.728" cy="309.9949" fill="#ADD1B2" rx="8.8" ry="8.8" style="stroke:#181818;stroke-width:0.8000000000000002;"/><path d="M744.9405,306.6949 Q745.0655,306.5199 745.2155,306.4324 Q745.3655,306.3449 745.5405,306.3449 Q745.8405,306.3449 746.028,306.5574 Q746.2155,306.7574 746.2155,307.2449 L746.2155,308.4074 Q746.2155,308.8949 746.028,309.1074 Q745.8405,309.3199 745.5405,309.3199 Q745.2655,309.3199 745.103,309.1574 Q744.9405,309.0074 744.853,308.5949 Q744.8155,308.3074 744.6655,308.1574 Q744.403,307.8574 743.9155,307.6824 Q743.428,307.5074 742.928,307.5074 Q742.3155,307.5074 741.803,307.7699 Q741.303,308.0324 740.903,308.6324 Q740.5155,309.2324 740.5155,310.0574 L740.5155,310.9324 Q740.5155,311.9199 741.228,312.5824 Q741.9405,313.2324 743.2155,313.2324 Q743.9655,313.2324 744.4905,313.0324 Q744.803,312.9074 745.1405,312.5574 Q745.353,312.3449 745.4655,312.2824 Q745.5905,312.2199 745.753,312.2199 Q746.0155,312.2199 746.2155,312.4324 Q746.428,312.6324 746.428,312.9074 Q746.428,313.1824 746.153,313.5074 Q745.753,313.9699 745.1155,314.2324 Q744.253,314.5949 743.2155,314.5949 Q742.003,314.5949 741.0405,314.0949 Q740.253,313.6949 739.703,312.8449 Q739.153,311.9824 739.153,310.9574 L739.153,310.0324 Q739.153,308.9699 739.6405,308.0574 Q740.1405,307.1324 741.0155,306.6449 Q741.8905,306.1449 742.878,306.1449 Q743.4655,306.1449 743.978,306.2824 Q744.503,306.4074 744.9405,306.6949 Z " fill="#000000"/><text fill="#000000" font-family="sans-serif" font-size="11.2" lengthAdjust="spacing" textLength="103.343" x="753.928" y="314.6324">BuildVariationLibrary</text><line style="stroke:#181818;stroke-width:0.4000000000000001;" x1="731.528" x2="858.871" y1="322.7949" y2="322.7949"/><line style="stroke:#181818;stroke-width:0.4000000000000001;" x1="731.528" x2="858.871" y1="329.1949" y2="329.1949"/></g><!--class BuildVariationLibrary$TaxonRead--><g id="elem_BuildVariationLibrary$TaxonRead"><rect codeLine="5" fill="#F1F1F1" height="38.4" id="BuildVariationLibrary$TaxonRead" rx="2" ry="2" style="stroke:#181818;stroke-width:0.4000000000000001;" width="193.075" x="657.064" y="383.5949"/><ellipse cx="669.064" cy="396.3949" fill="#ADD1B2" rx="8.8" ry="8.8" style="stroke:#181818;stroke-width:0.8000000000000002;"/><path d="M671.2765,393.0949 Q671.4015,392.9199 671.5515,392.8324 Q671.7015,392.7449 671.8765,392.7449 Q672.1765,392.7449 672.364,392.9574 Q672.5515,393.1574 672.5515,393.6449 L672.5515,394.8074 Q672.5515,395.2949 672.364,395.5074 Q672.1765,395.7199 671.8765,395.7199 Q671.6015,395.7199 671.439,395.5574 Q671.2765,395.4074 671.189,394.9949 Q671.1515,394.7074 671.0015,394.5574 Q670.739,394.2574 670.2515,394.0824 Q669.764,393.9074 669.264,393.9074 Q668.6515,393.9074 668.139,394.1699 Q667.639,394.4324 667.239,395.0324 Q666.8515,395.6324 666.8515,396.4574 L666.8515,397.3324 Q666.8515,398.3199 667.564,398.9824 Q668.2765,399.6324 669.5515,399.6324 Q670.3015,399.6324 670.8265,399.4324 Q671.139,399.3074 671.4765,398.9574 Q671.689,398.7449 671.8015,398.6824 Q671.9265,398.6199 672.089,398.6199 Q672.3515,398.6199 672.5515,398.8324 Q672.764,399.0324 672.764,399.3074 Q672.764,399.5824 672.489,399.9074 Q672.089,400.3699 671.4515,400.6324 Q670.589,400.9949 669.5515,400.9949 Q668.339,400.9949 667.3765,400.4949 Q666.589,400.0949 666.039,399.2449 Q665.489,398.3824 665.489,397.3574 L665.489,396.4324 Q665.489,395.3699 665.9765,394.4574 Q666.4765,393.5324 667.3515,393.0449 Q668.2265,392.5449 669.214,392.5449 Q669.8015,392.5449 670.314,392.6824 Q670.839,392.8074 671.2765,393.0949 Z " fill="#000000"/><text fill="#000000" font-family="sans-serif" font-size="11.2" lengthAdjust="spacing" textLength="167.475" x="680.264" y="401.0324">BuildVariationLibrary$TaxonRead</text><line style="stroke:#181818;stroke-width:0.4000000000000001;" x1="657.864" x2="849.339" y1="409.1949" y2="409.1949"/><line style="stroke:#181818;stroke-width:0.4000000000000001;" x1="657.864" x2="849.339" y1="415.5949" y2="415.5949"/></g><!--class IndividualCount--><g id="elem_IndividualCount"><rect codeLine="7" fill="#F1F1F1" height="38.4" id="IndividualCount" rx="2" ry="2" style="stroke:#181818;stroke-width:0.4000000000000001;" width="102.8078" x="1283.8" y="383.5949"/><ellipse cx="1295.8" cy="396.3949" fill="#ADD1B2" rx="8.8" ry="8.8" style="stroke:#181818;stroke-width:0.8000000000000002;"/><path d="M1298.0125,393.0949 Q1298.1375,392.9199 1298.2875,392.8324 Q1298.4375,392.7449 1298.6125,392.7449 Q1298.9125,392.7449 1299.1,392.9574 Q1299.2875,393.1574 1299.2875,393.6449 L1299.2875,394.8074 Q1299.2875,395.2949 1299.1,395.5074 Q1298.9125,395.7199 1298.6125,395.7199 Q1298.3375,395.7199 1298.175,395.5574 Q1298.0125,395.4074 1297.925,394.9949 Q1297.8875,394.7074 1297.7375,394.5574 Q1297.475,394.2574 1296.9875,394.0824 Q1296.5,393.9074 1296,393.9074 Q1295.3875,393.9074 1294.875,394.1699 Q1294.375,394.4324 1293.975,395.0324 Q1293.5875,395.6324 1293.5875,396.4574 L1293.5875,397.3324 Q1293.5875,398.3199 1294.3,398.9824 Q1295.0125,399.6324 1296.2875,399.6324 Q1297.0375,399.6324 1297.5625,399.4324 Q1297.875,399.3074 1298.2125,398.9574 Q1298.425,398.7449 1298.5375,398.6824 Q1298.6625,398.6199 1298.825,398.6199 Q1299.0875,398.6199 1299.2875,398.8324 Q1299.5,399.0324 1299.5,399.3074 Q1299.5,399.5824 1299.225,399.9074 Q1298.825,400.3699 1298.1875,400.6324 Q1297.325,400.9949 1296.2875,400.9949 Q1295.075,400.9949 1294.1125,400.4949 Q1293.325,400.0949 1292.775,399.2449 Q1292.225,398.3824 1292.225,397.3574 L1292.225,396.4324 Q1292.225,395.3699 1292.7125,394.4574 Q1293.2125,393.5324 1294.0875,393.0449 Q1294.9625,392.5449 1295.95,392.5449 Q1296.5375,392.5449 1297.05,392.6824 Q1297.575,392.8074 1298.0125,393.0949 Z " fill="#000000"/><text fill="#000000" font-family="sans-serif" font-size="11.2" lengthAdjust="spacing" textLength="77.2078" x="1307" y="401.0324">IndividualCount</text><line style="stroke:#181818;stroke-width:0.4000000000000001;" x1="1284.6" x2="1385.8078" y1="409.1949" y2="409.1949"/><line style="stroke:#181818;stroke-width:0.4000000000000001;" x1="1284.6" x2="1385.8078" y1="415.5949" y2="415.5949"/></g><!--class IndividualGenotype--><g id="elem_IndividualGenotype"><rect codeLine="9" fill="#F1F1F1" height="38.4" id="IndividualGenotype" rx="2" ry="2" style="stroke:#181818;stroke-width:0.4000000000000001;" width="121.4891" x="878.456" y="383.5949"/><ellipse cx="890.456" cy="396.3949" fill="#ADD1B2" rx="8.8" ry="8.8" style="stroke:#181818;stroke-width:0.8000000000000002;"/><path d="M892.6685,393.0949 Q892.7935,392.9199 892.9435,392.8324 Q893.0935,392.7449 893.2685,392.7449 Q893.5685,392.7449 893.756,392.9574 Q893.9435,393.1574 893.9435,393.6449 L893.9435,394.8074 Q893.9435,395.2949 893.756,395.5074 Q893.5685,395.7199 893.2685,395.7199 Q892.9935,395.7199 892.831,395.5574 Q892.6685,395.4074 892.581,394.9949 Q892.5435,394.7074 892.3935,394.5574 Q892.131,394.2574 891.6435,394.0824 Q891.156,393.9074 890.656,393.9074 Q890.0435,393.9074 889.531,394.1699 Q889.031,394.4324 888.631,395.0324 Q888.2435,395.6324 888.2435,396.4574 L888.2435,397.3324 Q888.2435,398.3199 888.956,398.9824 Q889.6685,399.6324 890.9435,399.6324 Q891.6935,399.6324 892.2185,399.4324 Q892.531,399.3074 892.8685,398.9574 Q893.081,398.7449 893.1935,398.6824 Q893.3185,398.6199 893.481,398.6199 Q893.7435,398.6199 893.9435,398.8324 Q894.156,399.0324 894.156,399.3074 Q894.156,399.5824 893.881,399.9074 Q893.481,400.3699 892.8435,400.6324 Q891.981,400.9949 890.9435,400.9949 Q889.731,400.9949 888.7685,400.4949 Q887.981,400.0949 887.431,399.2449 Q886.881,398.3824 886.881,397.3574 L886.881,396.4324 Q886.881,395.3699 887.3685,394.4574 Q887.8685,393.5324 888.7435,393.0449 Q889.6185,392.5449 890.606,392.5449 Q891.1935,392.5449 891.706,392.6824 Q892.231,392.8074 892.6685,393.0949 Z " fill="#000000"/><text fill="#000000" font-family="sans-serif" font-size="11.2" lengthAdjust="spacing" textLength="95.8891" x="901.656" y="401.0324">IndividualGenotype</text><line style="stroke:#181818;stroke-width:0.4000000000000001;" x1="879.256" x2="999.1451" y1="409.1949" y2="409.1949"/><line style="stroke:#181818;stroke-width:0.4000000000000001;" x1="879.256" x2="999.1451" y1="415.5949" y2="415.5949"/></g><!--class ViewVariationLibrary--><g id="elem_ViewVariationLibrary"><rect codeLine="18" fill="#F1F1F1" height="38.4" id="ViewVariationLibrary" rx="2" ry="2" style="stroke:#181818;stroke-width:0.4000000000000001;" width="128.3141" x="887.84" y="297.1949"/><ellipse cx="899.84" cy="309.9949" fill="#ADD1B2" rx="8.8" ry="8.8" style="stroke:#181818;stroke-width:0.8000000000000002;"/><path d="M902.0525,306.6949 Q902.1775,306.5199 902.3275,306.4324 Q902.4775,306.3449 902.6525,306.3449 Q902.9525,306.3449 903.14,306.5574 Q903.3275,306.7574 903.3275,307.2449 L903.3275,308.4074 Q903.3275,308.8949 903.14,309.1074 Q902.9525,309.3199 902.6525,309.3199 Q902.3775,309.3199 902.215,309.1574 Q902.0525,309.0074 901.965,308.5949 Q901.9275,308.3074 901.7775,308.1574 Q901.515,307.8574 901.0275,307.6824 Q900.54,307.5074 900.04,307.5074 Q899.4275,307.5074 898.915,307.7699 Q898.415,308.0324 898.015,308.6324 Q897.6275,309.2324 897.6275,310.0574 L897.6275,310.9324 Q897.6275,311.9199 898.34,312.5824 Q899.0525,313.2324 900.3275,313.2324 Q901.0775,313.2324 901.6025,313.0324 Q901.915,312.9074 902.2525,312.5574 Q902.465,312.3449 902.5775,312.2824 Q902.7025,312.2199 902.865,312.2199 Q903.1275,312.2199 903.3275,312.4324 Q903.54,312.6324 903.54,312.9074 Q903.54,313.1824 903.265,313.5074 Q902.865,313.9699 902.2275,314.2324 Q901.365,314.5949 900.3275,314.5949 Q899.115,314.5949 898.1525,314.0949 Q897.365,313.6949 896.815,312.8449 Q896.265,311.9824 896.265,310.9574 L896.265,310.0324 Q896.265,308.9699 896.7525,308.0574 Q897.2525,307.1324 898.1275,306.6449 Q899.0025,306.1449 899.99,306.1449 Q900.5775,306.1449 901.09,306.2824 Q901.615,306.4074 902.0525,306.6949 Z " fill="#000000"/><text fill="#000000" font-family="sans-serif" font-size="11.2" lengthAdjust="spacing" textLength="102.7141" x="911.04" y="314.6324">ViewVariationLibrary</text><line style="stroke:#181818;stroke-width:0.4000000000000001;" x1="888.64" x2="1015.3541" y1="322.7949" y2="322.7949"/><line style="stroke:#181818;stroke-width:0.4000000000000001;" x1="888.64" x2="1015.3541" y1="329.1949" y2="329.1949"/></g><!--class ScanGenotype--><g id="elem_ScanGenotype"><rect codeLine="20" fill="#F1F1F1" height="38.4" id="ScanGenotype" rx="2" ry="2" style="stroke:#181818;stroke-width:0.4000000000000001;" width="99.6961" x="82.952" y="297.1949"/><ellipse cx="94.952" cy="309.9949" fill="#ADD1B2" rx="8.8" ry="8.8" style="stroke:#181818;stroke-width:0.8000000000000002;"/><path d="M97.1645,306.6949 Q97.2895,306.5199 97.4395,306.4324 Q97.5895,306.3449 97.7645,306.3449 Q98.0645,306.3449 98.252,306.5574 Q98.4395,306.7574 98.4395,307.2449 L98.4395,308.4074 Q98.4395,308.8949 98.252,309.1074 Q98.0645,309.3199 97.7645,309.3199 Q97.4895,309.3199 97.327,309.1574 Q97.1645,309.0074 97.077,308.5949 Q97.0395,308.3074 96.8895,308.1574 Q96.627,307.8574 96.1395,307.6824 Q95.652,307.5074 95.152,307.5074 Q94.5395,307.5074 94.027,307.7699 Q93.527,308.0324 93.127,308.6324 Q92.7395,309.2324 92.7395,310.0574 L92.7395,310.9324 Q92.7395,311.9199 93.452,312.5824 Q94.1645,313.2324 95.4395,313.2324 Q96.1895,313.2324 96.7145,313.0324 Q97.027,312.9074 97.3645,312.5574 Q97.577,312.3449 97.6895,312.2824 Q97.8145,312.2199 97.977,312.2199 Q98.2395,312.2199 98.4395,312.4324 Q98.652,312.6324 98.652,312.9074 Q98.652,313.1824 98.377,313.5074 Q97.977,313.9699 97.3395,314.2324 Q96.477,314.5949 95.4395,314.5949 Q94.227,314.5949 93.2645,314.0949 Q92.477,313.6949 91.927,312.8449 Q91.377,311.9824 91.377,310.9574 L91.377,310.0324 Q91.377,308.9699 91.8645,308.0574 Q92.3645,307.1324 93.2395,306.6449 Q94.1145,306.1449 95.102,306.1449 Q95.6895,306.1449 96.202,306.2824 Q96.727,306.4074 97.1645,306.6949 Z " fill="#000000"/><text fill="#000000" font-family="sans-serif" font-size="11.2" lengthAdjust="spacing" textLength="74.0961" x="106.152" y="314.6324">ScanGenotype</text><line style="stroke:#181818;stroke-width:0.4000000000000001;" x1="83.752" x2="181.8481" y1="322.7949" y2="322.7949"/><line style="stroke:#181818;stroke-width:0.4000000000000001;" x1="83.752" x2="181.8481" y1="329.1949" y2="329.1949"/></g><!--class ScanGenotype$TaxonCountRead--><g id="elem_ScanGenotype$TaxonCountRead"><rect codeLine="22" fill="#F1F1F1" height="38.4" id="ScanGenotype$TaxonCountRead" rx="2" ry="2" style="stroke:#181818;stroke-width:0.4000000000000001;" width="193.7148" x="55.944" y="383.5949"/><ellipse cx="67.944" cy="396.3949" fill="#ADD1B2" rx="8.8" ry="8.8" style="stroke:#181818;stroke-width:0.8000000000000002;"/><path d="M70.1565,393.0949 Q70.2815,392.9199 70.4315,392.8324 Q70.5815,392.7449 70.7565,392.7449 Q71.0565,392.7449 71.244,392.9574 Q71.4315,393.1574 71.4315,393.6449 L71.4315,394.8074 Q71.4315,395.2949 71.244,395.5074 Q71.0565,395.7199 70.7565,395.7199 Q70.4815,395.7199 70.319,395.5574 Q70.1565,395.4074 70.069,394.9949 Q70.0315,394.7074 69.8815,394.5574 Q69.619,394.2574 69.1315,394.0824 Q68.644,393.9074 68.144,393.9074 Q67.5315,393.9074 67.019,394.1699 Q66.519,394.4324 66.119,395.0324 Q65.7315,395.6324 65.7315,396.4574 L65.7315,397.3324 Q65.7315,398.3199 66.444,398.9824 Q67.1565,399.6324 68.4315,399.6324 Q69.1815,399.6324 69.7065,399.4324 Q70.019,399.3074 70.3565,398.9574 Q70.569,398.7449 70.6815,398.6824 Q70.8065,398.6199 70.969,398.6199 Q71.2315,398.6199 71.4315,398.8324 Q71.644,399.0324 71.644,399.3074 Q71.644,399.5824 71.369,399.9074 Q70.969,400.3699 70.3315,400.6324 Q69.469,400.9949 68.4315,400.9949 Q67.219,400.9949 66.2565,400.4949 Q65.469,400.0949 64.919,399.2449 Q64.369,398.3824 64.369,397.3574 L64.369,396.4324 Q64.369,395.3699 64.8565,394.4574 Q65.3565,393.5324 66.2315,393.0449 Q67.1065,392.5449 68.094,392.5449 Q68.6815,392.5449 69.194,392.6824 Q69.719,392.8074 70.1565,393.0949 Z " fill="#000000"/><text fill="#000000" font-family="sans-serif" font-size="11.2" lengthAdjust="spacing" textLength="168.1148" x="79.144" y="401.0324">ScanGenotype$TaxonCountRead</text><line style="stroke:#181818;stroke-width:0.4000000000000001;" x1="56.744" x2="248.8588" y1="409.1949" y2="409.1949"/><line style="stroke:#181818;stroke-width:0.4000000000000001;" x1="56.744" x2="248.8588" y1="415.5949" y2="415.5949"/></g><!--class ScanGenotype$IndiCount--><g id="elem_ScanGenotype$IndiCount"><rect codeLine="24" fill="#F1F1F1" height="38.4" id="ScanGenotype$IndiCount" rx="2" ry="2" style="stroke:#181818;stroke-width:0.4000000000000001;" width="153.8695" x="277.464" y="383.5949"/><ellipse cx="289.464" cy="396.3949" fill="#ADD1B2" rx="8.8" ry="8.8" style="stroke:#181818;stroke-width:0.8000000000000002;"/><path d="M291.6765,393.0949 Q291.8015,392.9199 291.9515,392.8324 Q292.1015,392.7449 292.2765,392.7449 Q292.5765,392.7449 292.764,392.9574 Q292.9515,393.1574 292.9515,393.6449 L292.9515,394.8074 Q292.9515,395.2949 292.764,395.5074 Q292.5765,395.7199 292.2765,395.7199 Q292.0015,395.7199 291.839,395.5574 Q291.6765,395.4074 291.589,394.9949 Q291.5515,394.7074 291.4015,394.5574 Q291.139,394.2574 290.6515,394.0824 Q290.164,393.9074 289.664,393.9074 Q289.0515,393.9074 288.539,394.1699 Q288.039,394.4324 287.639,395.0324 Q287.2515,395.6324 287.2515,396.4574 L287.2515,397.3324 Q287.2515,398.3199 287.964,398.9824 Q288.6765,399.6324 289.9515,399.6324 Q290.7015,399.6324 291.2265,399.4324 Q291.539,399.3074 291.8765,398.9574 Q292.089,398.7449 292.2015,398.6824 Q292.3265,398.6199 292.489,398.6199 Q292.7515,398.6199 292.9515,398.8324 Q293.164,399.0324 293.164,399.3074 Q293.164,399.5824 292.889,399.9074 Q292.489,400.3699 291.8515,400.6324 Q290.989,400.9949 289.9515,400.9949 Q288.739,400.9949 287.7765,400.4949 Q286.989,400.0949 286.439,399.2449 Q285.889,398.3824 285.889,397.3574 L285.889,396.4324 Q285.889,395.3699 286.3765,394.4574 Q286.8765,393.5324 287.7515,393.0449 Q288.6265,392.5449 289.614,392.5449 Q290.2015,392.5449 290.714,392.6824 Q291.239,392.8074 291.6765,393.0949 Z " fill="#000000"/><text fill="#000000" font-family="sans-serif" font-size="11.2" lengthAdjust="spacing" textLength="128.2695" x="300.664" y="401.0324">ScanGenotype$IndiCount</text><line style="stroke:#181818;stroke-width:0.4000000000000001;" x1="278.264" x2="430.5335" y1="409.1949" y2="409.1949"/><line style="stroke:#181818;stroke-width:0.4000000000000001;" x1="278.264" x2="430.5335" y1="415.5949" y2="415.5949"/></g><!--class FastCall2--><g id="elem_FastCall2"><rect codeLine="28" fill="#F1F1F1" height="38.4" id="FastCall2" rx="2" ry="2" style="stroke:#181818;stroke-width:0.4000000000000001;" width="72.9047" x="489.144" y="297.1949"/><ellipse cx="501.144" cy="309.9949" fill="#ADD1B2" rx="8.8" ry="8.8" style="stroke:#181818;stroke-width:0.8000000000000002;"/><path d="M503.3565,306.6949 Q503.4815,306.5199 503.6315,306.4324 Q503.7815,306.3449 503.9565,306.3449 Q504.2565,306.3449 504.444,306.5574 Q504.6315,306.7574 504.6315,307.2449 L504.6315,308.4074 Q504.6315,308.8949 504.444,309.1074 Q504.2565,309.3199 503.9565,309.3199 Q503.6815,309.3199 503.519,309.1574 Q503.3565,309.0074 503.269,308.5949 Q503.2315,308.3074 503.0815,308.1574 Q502.819,307.8574 502.3315,307.6824 Q501.844,307.5074 501.344,307.5074 Q500.7315,307.5074 500.219,307.7699 Q499.719,308.0324 499.319,308.6324 Q498.9315,309.2324 498.9315,310.0574 L498.9315,310.9324 Q498.9315,311.9199 499.644,312.5824 Q500.3565,313.2324 501.6315,313.2324 Q502.3815,313.2324 502.9065,313.0324 Q503.219,312.9074 503.5565,312.5574 Q503.769,312.3449 503.8815,312.2824 Q504.0065,312.2199 504.169,312.2199 Q504.4315,312.2199 504.6315,312.4324 Q504.844,312.6324 504.844,312.9074 Q504.844,313.1824 504.569,313.5074 Q504.169,313.9699 503.5315,314.2324 Q502.669,314.5949 501.6315,314.5949 Q500.419,314.5949 499.4565,314.0949 Q498.669,313.6949 498.119,312.8449 Q497.569,311.9824 497.569,310.9574 L497.569,310.0324 Q497.569,308.9699 498.0565,308.0574 Q498.5565,307.1324 499.4315,306.6449 Q500.3065,306.1449 501.294,306.1449 Q501.8815,306.1449 502.394,306.2824 Q502.919,306.4074 503.3565,306.6949 Z " fill="#000000"/><text fill="#000000" font-family="sans-serif" font-size="11.2" lengthAdjust="spacing" textLength="47.3047" x="512.344" y="314.6324">FastCall2</text><line style="stroke:#181818;stroke-width:0.4000000000000001;" x1="489.944" x2="561.2487" y1="322.7949" y2="322.7949"/><line style="stroke:#181818;stroke-width:0.4000000000000001;" x1="489.944" x2="561.2487" y1="329.1949" y2="329.1949"/></g><!--class AllelePackage--><g id="elem_AllelePackage"><rect codeLine="30" fill="#F1F1F1" height="38.4" id="AllelePackage" rx="2" ry="2" style="stroke:#181818;stroke-width:0.4000000000000001;" width="96.5789" x="1027.712" y="383.5949"/><ellipse cx="1039.712" cy="396.3949" fill="#ADD1B2" rx="8.8" ry="8.8" style="stroke:#181818;stroke-width:0.8000000000000002;"/><path d="M1041.9245,393.0949 Q1042.0495,392.9199 1042.1995,392.8324 Q1042.3495,392.7449 1042.5245,392.7449 Q1042.8245,392.7449 1043.012,392.9574 Q1043.1995,393.1574 1043.1995,393.6449 L1043.1995,394.8074 Q1043.1995,395.2949 1043.012,395.5074 Q1042.8245,395.7199 1042.5245,395.7199 Q1042.2495,395.7199 1042.087,395.5574 Q1041.9245,395.4074 1041.837,394.9949 Q1041.7995,394.7074 1041.6495,394.5574 Q1041.387,394.2574 1040.8995,394.0824 Q1040.412,393.9074 1039.912,393.9074 Q1039.2995,393.9074 1038.787,394.1699 Q1038.287,394.4324 1037.887,395.0324 Q1037.4995,395.6324 1037.4995,396.4574 L1037.4995,397.3324 Q1037.4995,398.3199 1038.212,398.9824 Q1038.9245,399.6324 1040.1995,399.6324 Q1040.9495,399.6324 1041.4745,399.4324 Q1041.787,399.3074 1042.1245,398.9574 Q1042.337,398.7449 1042.4495,398.6824 Q1042.5745,398.6199 1042.737,398.6199 Q1042.9995,398.6199 1043.1995,398.8324 Q1043.412,399.0324 1043.412,399.3074 Q1043.412,399.5824 1043.137,399.9074 Q1042.737,400.3699 1042.0995,400.6324 Q1041.237,400.9949 1040.1995,400.9949 Q1038.987,400.9949 1038.0245,400.4949 Q1037.237,400.0949 1036.687,399.2449 Q1036.137,398.3824 1036.137,397.3574 L1036.137,396.4324 Q1036.137,395.3699 1036.6245,394.4574 Q1037.1245,393.5324 1037.9995,393.0449 Q1038.8745,392.5449 1039.862,392.5449 Q1040.4495,392.5449 1040.962,392.6824 Q1041.487,392.8074 1041.9245,393.0949 Z " fill="#000000"/><text fill="#000000" font-family="sans-serif" font-size="11.2" lengthAdjust="spacing" textLength="70.9789" x="1050.912" y="401.0324">AllelePackage</text><line style="stroke:#181818;stroke-width:0.4000000000000001;" x1="1028.512" x2="1123.4909" y1="409.1949" y2="409.1949"/><line style="stroke:#181818;stroke-width:0.4000000000000001;" x1="1028.512" x2="1123.4909" y1="415.5949" y2="415.5949"/></g><!--class CustomizeVariationLibrary--><g id="elem_CustomizeVariationLibrary"><rect codeLine="32" fill="#F1F1F1" height="38.4" id="CustomizeVariationLibrary" rx="2" ry="2" style="stroke:#181818;stroke-width:0.4000000000000001;" width="156.943" x="210.328" y="297.1949"/><ellipse cx="222.328" cy="309.9949" fill="#ADD1B2" rx="8.8" ry="8.8" style="stroke:#181818;stroke-width:0.8000000000000002;"/><path d="M224.5405,306.6949 Q224.6655,306.5199 224.8155,306.4324 Q224.9655,306.3449 225.1405,306.3449 Q225.4405,306.3449 225.628,306.5574 Q225.8155,306.7574 225.8155,307.2449 L225.8155,308.4074 Q225.8155,308.8949 225.628,309.1074 Q225.4405,309.3199 225.1405,309.3199 Q224.8655,309.3199 224.703,309.1574 Q224.5405,309.0074 224.453,308.5949 Q224.4155,308.3074 224.2655,308.1574 Q224.003,307.8574 223.5155,307.6824 Q223.028,307.5074 222.528,307.5074 Q221.9155,307.5074 221.403,307.7699 Q220.903,308.0324 220.503,308.6324 Q220.1155,309.2324 220.1155,310.0574 L220.1155,310.9324 Q220.1155,311.9199 220.828,312.5824 Q221.5405,313.2324 222.8155,313.2324 Q223.5655,313.2324 224.0905,313.0324 Q224.403,312.9074 224.7405,312.5574 Q224.953,312.3449 225.0655,312.2824 Q225.1905,312.2199 225.353,312.2199 Q225.6155,312.2199 225.8155,312.4324 Q226.028,312.6324 226.028,312.9074 Q226.028,313.1824 225.753,313.5074 Q225.353,313.9699 224.7155,314.2324 Q223.853,314.5949 222.8155,314.5949 Q221.603,314.5949 220.6405,314.0949 Q219.853,313.6949 219.303,312.8449 Q218.753,311.9824 218.753,310.9574 L218.753,310.0324 Q218.753,308.9699 219.2405,308.0574 Q219.7405,307.1324 220.6155,306.6449 Q221.4905,306.1449 222.478,306.1449 Q223.0655,306.1449 223.578,306.2824 Q224.103,306.4074 224.5405,306.6949 Z " fill="#000000"/><text fill="#000000" font-family="sans-serif" font-size="11.2" lengthAdjust="spacing" textLength="131.343" x="233.528" y="314.6324">CustomizeVariationLibrary</text><line style="stroke:#181818;stroke-width:0.4000000000000001;" x1="211.128" x2="366.471" y1="322.7949" y2="322.7949"/><line style="stroke:#181818;stroke-width:0.4000000000000001;" x1="211.128" x2="366.471" y1="329.1949" y2="329.1949"/></g><!--class DiscoverVariation--><g id="elem_DiscoverVariation"><rect codeLine="34" fill="#F1F1F1" height="38.4" id="DiscoverVariation" rx="2" ry="2" style="stroke:#181818;stroke-width:0.4000000000000001;" width="113.368" x="589.72" y="297.1949"/><ellipse cx="601.72" cy="309.9949" fill="#ADD1B2" rx="8.8" ry="8.8" style="stroke:#181818;stroke-width:0.8000000000000002;"/><path d="M603.9325,306.6949 Q604.0575,306.5199 604.2075,306.4324 Q604.3575,306.3449 604.5325,306.3449 Q604.8325,306.3449 605.02,306.5574 Q605.2075,306.7574 605.2075,307.2449 L605.2075,308.4074 Q605.2075,308.8949 605.02,309.1074 Q604.8325,309.3199 604.5325,309.3199 Q604.2575,309.3199 604.095,309.1574 Q603.9325,309.0074 603.845,308.5949 Q603.8075,308.3074 603.6575,308.1574 Q603.395,307.8574 602.9075,307.6824 Q602.42,307.5074 601.92,307.5074 Q601.3075,307.5074 600.795,307.7699 Q600.295,308.0324 599.895,308.6324 Q599.5075,309.2324 599.5075,310.0574 L599.5075,310.9324 Q599.5075,311.9199 600.22,312.5824 Q600.9325,313.2324 602.2075,313.2324 Q602.9575,313.2324 603.4825,313.0324 Q603.795,312.9074 604.1325,312.5574 Q604.345,312.3449 604.4575,312.2824 Q604.5825,312.2199 604.745,312.2199 Q605.0075,312.2199 605.2075,312.4324 Q605.42,312.6324 605.42,312.9074 Q605.42,313.1824 605.145,313.5074 Q604.745,313.9699 604.1075,314.2324 Q603.245,314.5949 602.2075,314.5949 Q600.995,314.5949 600.0325,314.0949 Q599.245,313.6949 598.695,312.8449 Q598.145,311.9824 598.145,310.9574 L598.145,310.0324 Q598.145,308.9699 598.6325,308.0574 Q599.1325,307.1324 600.0075,306.6449 Q600.8825,306.1449 601.87,306.1449 Q602.4575,306.1449 602.97,306.2824 Q603.495,306.4074 603.9325,306.6949 Z " fill="#000000"/><text fill="#000000" font-family="sans-serif" font-size="11.2" lengthAdjust="spacing" textLength="87.768" x="612.92" y="314.6324">DiscoverVariation</text><line style="stroke:#181818;stroke-width:0.4000000000000001;" x1="590.52" x2="702.288" y1="322.7949" y2="322.7949"/><line style="stroke:#181818;stroke-width:0.4000000000000001;" x1="590.52" x2="702.288" y1="329.1949" y2="329.1949"/></g><!--class DiscoverVariation$TaxonCall--><g id="elem_DiscoverVariation$TaxonCall"><rect codeLine="36" fill="#F1F1F1" height="38.4" id="DiscoverVariation$TaxonCall" rx="2" ry="2" style="stroke:#181818;stroke-width:0.4000000000000001;" width="170.0188" x="458.992" y="383.5949"/><ellipse cx="470.992" cy="396.3949" fill="#ADD1B2" rx="8.8" ry="8.8" style="stroke:#181818;stroke-width:0.8000000000000002;"/><path d="M473.2045,393.0949 Q473.3295,392.9199 473.4795,392.8324 Q473.6295,392.7449 473.8045,392.7449 Q474.1045,392.7449 474.292,392.9574 Q474.4795,393.1574 474.4795,393.6449 L474.4795,394.8074 Q474.4795,395.2949 474.292,395.5074 Q474.1045,395.7199 473.8045,395.7199 Q473.5295,395.7199 473.367,395.5574 Q473.2045,395.4074 473.117,394.9949 Q473.0795,394.7074 472.9295,394.5574 Q472.667,394.2574 472.1795,394.0824 Q471.692,393.9074 471.192,393.9074 Q470.5795,393.9074 470.067,394.1699 Q469.567,394.4324 469.167,395.0324 Q468.7795,395.6324 468.7795,396.4574 L468.7795,397.3324 Q468.7795,398.3199 469.492,398.9824 Q470.2045,399.6324 471.4795,399.6324 Q472.2295,399.6324 472.7545,399.4324 Q473.067,399.3074 473.4045,398.9574 Q473.617,398.7449 473.7295,398.6824 Q473.8545,398.6199 474.017,398.6199 Q474.2795,398.6199 474.4795,398.8324 Q474.692,399.0324 474.692,399.3074 Q474.692,399.5824 474.417,399.9074 Q474.017,400.3699 473.3795,400.6324 Q472.517,400.9949 471.4795,400.9949 Q470.267,400.9949 469.3045,400.4949 Q468.517,400.0949 467.967,399.2449 Q467.417,398.3824 467.417,397.3574 L467.417,396.4324 Q467.417,395.3699 467.9045,394.4574 Q468.4045,393.5324 469.2795,393.0449 Q470.1545,392.5449 471.142,392.5449 Q471.7295,392.5449 472.242,392.6824 Q472.767,392.8074 473.2045,393.0949 Z " fill="#000000"/><text fill="#000000" font-family="sans-serif" font-size="11.2" lengthAdjust="spacing" textLength="144.4188" x="482.192" y="401.0324">DiscoverVariation$TaxonCall</text><line style="stroke:#181818;stroke-width:0.4000000000000001;" x1="459.792" x2="628.2108" y1="409.1949" y2="409.1949"/><line style="stroke:#181818;stroke-width:0.4000000000000001;" x1="459.792" x2="628.2108" y1="415.5949" y2="415.5949"/></g><!--class Comparable--><g id="elem_Comparable"><rect fill="#F1F1F1" height="38.4" id="Comparable" rx="2" ry="2" style="stroke:#181818;stroke-width:0.4000000000000001;" width="86.6094" x="1051.896" y="297.1949"/><ellipse cx="1063.896" cy="309.9949" fill="#ADD1B2" rx="8.8" ry="8.8" style="stroke:#181818;stroke-width:0.8000000000000002;"/><path d="M1066.1085,306.6949 Q1066.2335,306.5199 1066.3835,306.4324 Q1066.5335,306.3449 1066.7085,306.3449 Q1067.0085,306.3449 1067.196,306.5574 Q1067.3835,306.7574 1067.3835,307.2449 L1067.3835,308.4074 Q1067.3835,308.8949 1067.196,309.1074 Q1067.0085,309.3199 1066.7085,309.3199 Q1066.4335,309.3199 1066.271,309.1574 Q1066.1085,309.0074 1066.021,308.5949 Q1065.9835,308.3074 1065.8335,308.1574 Q1065.571,307.8574 1065.0835,307.6824 Q1064.596,307.5074 1064.096,307.5074 Q1063.4835,307.5074 1062.971,307.7699 Q1062.471,308.0324 1062.071,308.6324 Q1061.6835,309.2324 1061.6835,310.0574 L1061.6835,310.9324 Q1061.6835,311.9199 1062.396,312.5824 Q1063.1085,313.2324 1064.3835,313.2324 Q1065.1335,313.2324 1065.6585,313.0324 Q1065.971,312.9074 1066.3085,312.5574 Q1066.521,312.3449 1066.6335,312.2824 Q1066.7585,312.2199 1066.921,312.2199 Q1067.1835,312.2199 1067.3835,312.4324 Q1067.596,312.6324 1067.596,312.9074 Q1067.596,313.1824 1067.321,313.5074 Q1066.921,313.9699 1066.2835,314.2324 Q1065.421,314.5949 1064.3835,314.5949 Q1063.171,314.5949 1062.2085,314.0949 Q1061.421,313.6949 1060.871,312.8449 Q1060.321,311.9824 1060.321,310.9574 L1060.321,310.0324 Q1060.321,308.9699 1060.8085,308.0574 Q1061.3085,307.1324 1062.1835,306.6449 Q1063.0585,306.1449 1064.046,306.1449 Q1064.6335,306.1449 1065.146,306.2824 Q1065.671,306.4074 1066.1085,306.6949 Z " fill="#000000"/><text fill="#000000" font-family="sans-serif" font-size="11.2" lengthAdjust="spacing" textLength="61.0094" x="1075.096" y="314.6324">Comparable</text><line style="stroke:#181818;stroke-width:0.4000000000000001;" x1="1052.696" x2="1137.7054" y1="322.7949" y2="322.7949"/><line style="stroke:#181818;stroke-width:0.4000000000000001;" x1="1052.696" x2="1137.7054" y1="329.1949" y2="329.1949"/></g><!--class Callable--><g id="elem_Callable"><rect fill="#F1F1F1" height="38.4" id="Callable" rx="2" ry="2" style="stroke:#181818;stroke-width:0.4000000000000001;" width="66.0688" x="394.968" y="297.1949"/><ellipse cx="406.968" cy="309.9949" fill="#ADD1B2" rx="8.8" ry="8.8" style="stroke:#181818;stroke-width:0.8000000000000002;"/><path d="M409.1805,306.6949 Q409.3055,306.5199 409.4555,306.4324 Q409.6055,306.3449 409.7805,306.3449 Q410.0805,306.3449 410.268,306.5574 Q410.4555,306.7574 410.4555,307.2449 L410.4555,308.4074 Q410.4555,308.8949 410.268,309.1074 Q410.0805,309.3199 409.7805,309.3199 Q409.5055,309.3199 409.343,309.1574 Q409.1805,309.0074 409.093,308.5949 Q409.0555,308.3074 408.9055,308.1574 Q408.643,307.8574 408.1555,307.6824 Q407.668,307.5074 407.168,307.5074 Q406.5555,307.5074 406.043,307.7699 Q405.543,308.0324 405.143,308.6324 Q404.7555,309.2324 404.7555,310.0574 L404.7555,310.9324 Q404.7555,311.9199 405.468,312.5824 Q406.1805,313.2324 407.4555,313.2324 Q408.2055,313.2324 408.7305,313.0324 Q409.043,312.9074 409.3805,312.5574 Q409.593,312.3449 409.7055,312.2824 Q409.8305,312.2199 409.993,312.2199 Q410.2555,312.2199 410.4555,312.4324 Q410.668,312.6324 410.668,312.9074 Q410.668,313.1824 410.393,313.5074 Q409.993,313.9699 409.3555,314.2324 Q408.493,314.5949 407.4555,314.5949 Q406.243,314.5949 405.2805,314.0949 Q404.493,313.6949 403.943,312.8449 Q403.393,311.9824 403.393,310.9574 L403.393,310.0324 Q403.393,308.9699 403.8805,308.0574 Q404.3805,307.1324 405.2555,306.6449 Q406.1305,306.1449 407.118,306.1449 Q407.7055,306.1449 408.218,306.2824 Q408.743,306.4074 409.1805,306.6949 Z " fill="#000000"/><text fill="#000000" font-family="sans-serif" font-size="11.2" lengthAdjust="spacing" textLength="40.4688" x="418.168" y="314.6324">Callable</text><line style="stroke:#181818;stroke-width:0.4000000000000001;" x1="395.768" x2="460.2368" y1="322.7949" y2="322.7949"/><line style="stroke:#181818;stroke-width:0.4000000000000001;" x1="395.768" x2="460.2368" y1="329.1949" y2="329.1949"/></g><!--reverse link Comparable to VariationLibrary--><g id="link_Comparable_VariationLibrary"><path codeLine="42" d="M1130.4351,344.6586 C1148.5711,358.8026 1162.056,369.2989 1180.176,383.4269 " fill="none" id="Comparable-backto-VariationLibrary" style="stroke:#181818;stroke-width:0.8000000000000002;stroke-dasharray:7.0,7.0;"/><polygon fill="none" points="1119.08,335.8029,1127.4832,348.4436,1133.3869,340.8736,1119.08,335.8029" style="stroke:#181818;stroke-width:0.8000000000000002;"/></g><!--reverse link AppAbstract to BuildVariationLibrary--><g id="link_AppAbstract_BuildVariationLibrary"><path codeLine="43" d="M703.2766,216.7673 C712.6286,220.2713 708.656,219.6509 716.8,225.1949 C745.312,244.5949 769.808,276.8509 783.512,297.1229 " fill="none" id="AppAbstract-backto-BuildVariationLibrary" style="stroke:#181818;stroke-width:0.8000000000000002;"/><polygon fill="none" points="689.792,211.7149,701.5924,221.2622,704.9607,212.2725,689.792,211.7149" style="stroke:#181818;stroke-width:0.8000000000000002;"/></g><!--reverse link BuildVariationLibrary to BuildVariationLibrary$TaxonRead--><g id="link_BuildVariationLibrary_BuildVariationLibrary$TaxonRead"><path codeLine="44" d="M780.4362,347.2955 C773.5002,361.4395 769.64,369.2989 762.712,383.4269 " fill="none" id="BuildVariationLibrary-backto-BuildVariationLibrary$TaxonRead" style="stroke:#181818;stroke-width:0.8000000000000002;stroke-dasharray:7.0,7.0;"/><ellipse cx="783.2541" cy="341.5492" fill="#FFFFFF" rx="6.4" ry="6.4" style="stroke:#181818;stroke-width:0.8000000000000002;"/><line style="stroke:#181818;stroke-width:0.8000000000000002;" x1="780.4362" x2="786.072" y1="347.2955" y2="335.8029"/><line style="stroke:#181818;stroke-width:0.8000000000000002;" x1="777.5079" x2="789.0004" y1="338.7313" y2="344.3671"/></g><!--reverse link Callable to BuildVariationLibrary$TaxonRead--><g id="link_Callable_BuildVariationLibrary$TaxonRead"><path codeLine="45" d="M474.8317,335.8142 C479.4557,337.5182 470.664,334.1789 475.2,335.5949 C536.264,354.6829 606.32,371.3629 660.888,383.2349 " fill="none" id="Callable-backto-BuildVariationLibrary$TaxonRead" style="stroke:#181818;stroke-width:0.8000000000000002;stroke-dasharray:7.0,7.0;"/><polygon fill="none" points="461.32,330.8349,473.172,340.3181,476.4915,331.3103,461.32,330.8349" style="stroke:#181818;stroke-width:0.8000000000000002;"/></g><!--reverse link Comparable to IndividualCount--><g id="link_Comparable_IndividualCount"><path codeLine="46" d="M1152.2421,337.3503 C1192.9701,351.7343 1240.304,368.4669 1283.504,383.7309 " fill="none" id="Comparable-backto-IndividualCount" style="stroke:#181818;stroke-width:0.8000000000000002;stroke-dasharray:7.0,7.0;"/><polygon fill="none" points="1138.664,332.5549,1150.6436,341.8764,1153.8405,332.8243,1138.664,332.5549" style="stroke:#181818;stroke-width:0.8000000000000002;"/></g><!--reverse link Comparable to IndividualGenotype--><g id="link_Comparable_IndividualGenotype"><path codeLine="47" d="M1048.316,342.6795 C1022.396,356.7675 999.592,369.1709 973.624,383.2829 " fill="none" id="Comparable-backto-IndividualGenotype" style="stroke:#181818;stroke-width:0.8000000000000002;stroke-dasharray:7.0,7.0;"/><polygon fill="none" points="1060.968,335.8029,1046.0238,338.4622,1050.6082,346.8968,1060.968,335.8029" style="stroke:#181818;stroke-width:0.8000000000000002;"/></g><!--reverse link AppAbstract to ViewVariationLibrary--><g id="link_AppAbstract_ViewVariationLibrary"><path codeLine="48" d="M704.4236,201.8951 C761.2716,203.8391 842.672,208.9949 873.6,225.1949 C904.696,241.4829 928.904,275.6669 941.768,297.0109 " fill="none" id="AppAbstract-backto-ViewVariationLibrary" style="stroke:#181818;stroke-width:0.8000000000000002;"/><polygon fill="none" points="690.032,201.4029,704.2595,206.6923,704.5876,197.0979,690.032,201.4029" style="stroke:#181818;stroke-width:0.8000000000000002;"/></g><!--reverse link AppAbstract to ScanGenotype--><g id="link_AppAbstract_ScanGenotype"><path codeLine="49" d="M588.5125,200.7657 C482.4405,201.6697 230.944,205.7469 196,225.1949 C167.72,240.9309 149.24,275.2909 139.936,296.8189 " fill="none" id="AppAbstract-backto-ScanGenotype" style="stroke:#181818;stroke-width:0.8000000000000002;"/><polygon fill="none" points="602.912,200.6429,588.4716,195.9658,588.5534,205.5655,602.912,200.6429" style="stroke:#181818;stroke-width:0.8000000000000002;"/></g><!--reverse link ScanGenotype to ScanGenotype$TaxonCountRead--><g id="link_ScanGenotype_ScanGenotype$TaxonCountRead"><path codeLine="50" d="M140.1237,348.2627 C143.4517,362.4067 145.088,369.2989 148.424,383.4269 " fill="none" id="ScanGenotype-backto-ScanGenotype$TaxonCountRead" style="stroke:#181818;stroke-width:0.8000000000000002;stroke-dasharray:7.0,7.0;"/><ellipse cx="138.6579" cy="342.0328" fill="#FFFFFF" rx="6.4" ry="6.4" style="stroke:#181818;stroke-width:0.8000000000000002;"/><line style="stroke:#181818;stroke-width:0.8000000000000002;" x1="140.1237" x2="137.192" y1="348.2627" y2="335.8029"/><line style="stroke:#181818;stroke-width:0.8000000000000002;" x1="132.428" x2="144.8877" y1="343.4987" y2="340.567"/></g><!--reverse link Callable to ScanGenotype$TaxonCountRead--><g id="link_Callable_ScanGenotype$TaxonCountRead"><path codeLine="51" d="M381.2283,335.9611 C328.9883,353.8571 269.384,370.7789 223.944,383.2269 " fill="none" id="Callable-backto-ScanGenotype$TaxonCountRead" style="stroke:#181818;stroke-width:0.8000000000000002;stroke-dasharray:7.0,7.0;"/><polygon fill="none" points="394.688,330.8429,379.5222,331.4745,382.9343,340.4477,394.688,330.8429" style="stroke:#181818;stroke-width:0.8000000000000002;"/></g><!--reverse link ScanGenotype to ScanGenotype$IndiCount--><g id="link_ScanGenotype_ScanGenotype$IndiCount"><path codeLine="52" d="M193.6588,340.4812 C230.4988,354.5772 268.816,369.2429 305.616,383.3309 " fill="none" id="ScanGenotype-backto-ScanGenotype$IndiCount" style="stroke:#181818;stroke-width:0.8000000000000002;stroke-dasharray:7.0,7.0;"/><ellipse cx="187.6814" cy="338.194" fill="#FFFFFF" rx="6.4" ry="6.4" style="stroke:#181818;stroke-width:0.8000000000000002;"/><line style="stroke:#181818;stroke-width:0.8000000000000002;" x1="193.6588" x2="181.704" y1="340.4812" y2="335.9069"/><line style="stroke:#181818;stroke-width:0.8000000000000002;" x1="185.3943" x2="189.9685" y1="344.1714" y2="332.2167"/></g><!--reverse link Callable to ScanGenotype$IndiCount--><g id="link_Callable_ScanGenotype$IndiCount"><path codeLine="53" d="M402.4109,346.6796 C390.1389,360.8236 382.776,369.2989 370.512,383.4269 " fill="none" id="Callable-backto-ScanGenotype$IndiCount" style="stroke:#181818;stroke-width:0.8000000000000002;stroke-dasharray:7.0,7.0;"/><polygon fill="none" points="411.848,335.8029,398.7854,343.5339,406.0365,349.8253,411.848,335.8029" style="stroke:#181818;stroke-width:0.8000000000000002;"/></g><!--reverse link AppInterface to AppAbstract--><g id="link_AppInterface_AppAbstract"><path codeLine="54" d="M646.4,117.2669 C646.4,138.5789 646.4,158.8269 646.4,180.1389 " fill="none" id="AppInterface-backto-AppAbstract" style="stroke:#181818;stroke-width:0.8000000000000002;stroke-dasharray:7.0,7.0;"/><polygon fill="none" points="646.4,102.8669,641.6,117.2669,651.2,117.2669,646.4,102.8669" style="stroke:#181818;stroke-width:0.8000000000000002;"/></g><!--reverse link Comparable to AllelePackage--><g id="link_Comparable_AllelePackage"><path codeLine="55" d="M1087.8064,349.848 C1084.6064,363.992 1083.4,369.2989 1080.2,383.4269 " fill="none" id="Comparable-backto-AllelePackage" style="stroke:#181818;stroke-width:0.8000000000000002;stroke-dasharray:7.0,7.0;"/><polygon fill="none" points="1090.984,335.8029,1083.1247,348.7888,1092.4881,350.9072,1090.984,335.8029" style="stroke:#181818;stroke-width:0.8000000000000002;"/></g><!--reverse link AppAbstract to CustomizeVariationLibrary--><g id="link_AppAbstract_CustomizeVariationLibrary"><path codeLine="56" d="M588.3714,201.2687 C523.3954,202.6847 419.128,207.3949 380.8,225.1949 C346.48,241.1389 317.376,275.4269 301.56,296.8909 " fill="none" id="AppAbstract-backto-CustomizeVariationLibrary" style="stroke:#181818;stroke-width:0.8000000000000002;"/><polygon fill="none" points="602.768,200.9549,588.2668,196.4698,588.476,206.0675,602.768,200.9549" style="stroke:#181818;stroke-width:0.8000000000000002;"/></g><!--reverse link AppAbstract to DiscoverVariation--><g id="link_AppAbstract_DiscoverVariation"><path codeLine="57" d="M646.4,233.5629 C646.4,254.9789 646.4,275.4189 646.4,296.8349 " fill="none" id="AppAbstract-backto-DiscoverVariation" style="stroke:#181818;stroke-width:0.8000000000000002;"/><polygon fill="none" points="646.4,219.1629,641.6,233.5629,651.2,233.5629,646.4,219.1629" style="stroke:#181818;stroke-width:0.8000000000000002;"/></g><!--reverse link DiscoverVariation to DiscoverVariation$TaxonCall--><g id="link_DiscoverVariation_DiscoverVariation$TaxonCall"><path codeLine="58" d="M614.0713,343.9691 C596.9993,358.1131 583.48,369.2989 566.416,383.4269 " fill="none" id="DiscoverVariation-backto-DiscoverVariation$TaxonCall" style="stroke:#181818;stroke-width:0.8000000000000002;stroke-dasharray:7.0,7.0;"/><ellipse cx="618.9997" cy="339.886" fill="#FFFFFF" rx="6.4" ry="6.4" style="stroke:#181818;stroke-width:0.8000000000000002;"/><line style="stroke:#181818;stroke-width:0.8000000000000002;" x1="614.0713" x2="623.928" y1="343.9691" y2="335.8029"/><line style="stroke:#181818;stroke-width:0.8000000000000002;" x1="614.9166" x2="623.0827" y1="334.9577" y2="344.8143"/></g><!--reverse link Callable to DiscoverVariation$TaxonCall--><g id="link_Callable_DiscoverVariation$TaxonCall"><path codeLine="59" d="M465.0801,344.3023 C484.4241,358.4463 499.28,369.2989 518.6,383.4269 " fill="none" id="Callable-backto-DiscoverVariation$TaxonCall" style="stroke:#181818;stroke-width:0.8000000000000002;stroke-dasharray:7.0,7.0;"/><polygon fill="none" points="453.456,335.8029,462.247,348.177,467.9133,340.4276,453.456,335.8029" style="stroke:#181818;stroke-width:0.8000000000000002;"/></g><!--SRC=[fPJ1Ru8m5CRl_Iiux6RauDcBmsmpMHQpBTuVvMaQIzkqnStD_Uy3fYWEIu4BWVA-ZzTV-HxbO4oWDZm4fS8r61i1vvDm1Pg1PL8yirY3tWVVv8VG6yNt6UF9SCNTEtnAyOgGEBKBaR0TIpBWaSo4zQnzH27jNc5PZY9Bo-gPKY-GeibNHq7mSDHTta-AXoTGRnI4G5qyBQMQeyfjRdvsnV2Z4u_2lTQXJ-4Vhn92AxIQhg1oPWUniHge3SxQ7ClijEfohI0vgsQS8ySbq2ritBkBCcDbohwm4xmvCrJkK5UYRjL7ZFdBKiU4HRq6YYSIYsgXU4r8GzioLQ0XvXXC3s7e4IToJNbw68zzSq9y4pXgxAKbUqtxow-ktVLmR2LsbVA17gTVtvTxKu1zjPTH8orHRpuXHyXxd4utjwxjLRDaQ6TrerhkAla5_Lu_H6qI-PxdpQ7aQ_1luX2V6TRCtZ6zUXo0m-qN]--></g></svg>